<svg xmlns="http://www.w3.org/2000/svg" viewBox="0 0 1024 1024" role="img" aria-label="builtbyjawad monogram"><rect width="1024" height="1024" rx="200" fill="#0F1B2D"/><g transform="translate(198.7,737.8) scale(0.6583,-0.6583)"><path transform="translate(0,0)" fill="#F7F5F0" d="M368 -14Q301 -14 265.0 9.0Q229 32 212 60H194V0H70V700H196V439H214Q225 457 243.5 473.0Q262 489 292.5 499.5Q323 510 368 510Q428 510 479.0 480.5Q530 451 561.0 394.0Q592 337 592 256V240Q592 159 561.0 102.0Q530 45 479.0 15.5Q428 -14 368 -14ZM330 96Q388 96 427.0 133.5Q466 171 466 243V253Q466 325 427.5 362.5Q389 400 330 400Q272 400 233.0 362.5Q194 325 194 253V243Q194 171 233.0 133.5Q272 96 330 96Z"/><path transform="translate(638,0)" fill="#10B981" d="M150 -14Q109 -14 81.5 12.5Q54 39 54 81Q54 123 81.5 149.5Q109 176 150 176Q190 176 217.0 149.5Q244 123 244 81Q244 39 217.0 12.5Q190 -14 150 -14Z"/></g></svg>