<svg xmlns="http://www.w3.org/2000/svg" viewBox="10 -774 6636 1034" role="img" aria-label="builtbyjawad logo"><g transform="scale(1,-1)"><path transform="translate(0,0)" fill="#F7F5F0" d="M368 -14Q301 -14 265.0 9.0Q229 32 212 60H194V0H70V700H196V439H214Q225 457 243.5 473.0Q262 489 292.5 499.5Q323 510 368 510Q428 510 479.0 480.5Q530 451 561.0 394.0Q592 337 592 256V240Q592 159 561.0 102.0Q530 45 479.0 15.5Q428 -14 368 -14ZM330 96Q388 96 427.0 133.5Q466 171 466 243V253Q466 325 427.5 362.5Q389 400 330 400Q272 400 233.0 362.5Q194 325 194 253V243Q194 171 233.0 133.5Q272 96 330 96Z"/><path transform="translate(638,0)" fill="#F7F5F0" d="M259 -8Q201 -8 157.5 18.5Q114 45 90.0 92.0Q66 139 66 200V496H192V210Q192 154 219.5 126.0Q247 98 298 98Q356 98 388.0 136.5Q420 175 420 244V496H546V0H422V65H404Q392 40 359.0 16.0Q326 -8 259 -8Z"/><path transform="translate(1254,0)" fill="#F7F5F0" d="M70 0V496H196V0ZM133 554Q99 554 75.5 576.0Q52 598 52 634Q52 670 75.5 692.0Q99 714 133 714Q168 714 191.0 692.0Q214 670 214 634Q214 598 191.0 576.0Q168 554 133 554Z"/><path transform="translate(1520,0)" fill="#F7F5F0" d="M70 0V700H196V0Z"/><path transform="translate(1786,0)" fill="#F7F5F0" d="M260 0Q211 0 180.5 30.5Q150 61 150 112V392H26V496H150V650H276V496H412V392H276V134Q276 104 304 104H400V0Z"/><path transform="translate(2242,0)" fill="#F7F5F0" d="M368 -14Q301 -14 265.0 9.0Q229 32 212 60H194V0H70V700H196V439H214Q225 457 243.5 473.0Q262 489 292.5 499.5Q323 510 368 510Q428 510 479.0 480.5Q530 451 561.0 394.0Q592 337 592 256V240Q592 159 561.0 102.0Q530 45 479.0 15.5Q428 -14 368 -14ZM330 96Q388 96 427.0 133.5Q466 171 466 243V253Q466 325 427.5 362.5Q389 400 330 400Q272 400 233.0 362.5Q194 325 194 253V243Q194 171 233.0 133.5Q272 96 330 96Z"/><path transform="translate(2880,0)" fill="#F7F5F0" d="M124 -200V-90H394Q422 -90 422 -60V65H404Q396 48 379.0 31.0Q362 14 333.0 3.0Q304 -8 259 -8Q201 -8 157.5 18.5Q114 45 90.0 92.0Q66 139 66 200V496H192V210Q192 154 219.5 126.0Q247 98 298 98Q356 98 388.0 136.5Q420 175 420 244V496H546V-88Q546 -139 516.0 -169.5Q486 -200 436 -200Z"/><path transform="translate(3496,0)" fill="#F7F5F0" d="M-22 -200V-92H44Q72 -92 72 -62V496H198V-88Q198 -139 168.0 -169.5Q138 -200 88 -200ZM135 554Q101 554 77.5 576.0Q54 598 54 634Q54 670 77.5 692.0Q101 714 135 714Q170 714 193.0 692.0Q216 670 216 634Q216 598 193.0 576.0Q170 554 135 554Z"/><path transform="translate(3764,0)" fill="#F7F5F0" d="M224 -14Q171 -14 129.0 4.5Q87 23 62.5 58.5Q38 94 38 145Q38 196 62.5 230.5Q87 265 130.5 282.5Q174 300 230 300H366V328Q366 363 344.0 385.5Q322 408 274 408Q227 408 204.0 386.5Q181 365 174 331L58 370Q70 408 96.5 439.5Q123 471 167.5 490.5Q212 510 276 510Q374 510 431.0 461.0Q488 412 488 319V134Q488 104 516 104H556V0H472Q435 0 411.0 18.0Q387 36 387 66V67H368Q364 55 350.0 35.5Q336 16 306.0 1.0Q276 -14 224 -14ZM246 88Q299 88 332.5 117.5Q366 147 366 196V206H239Q204 206 184.0 191.0Q164 176 164 149Q164 122 185.0 105.0Q206 88 246 88Z"/><path transform="translate(4342,0)" fill="#F7F5F0" d="M110 0 40 496H165L209 85H227L291 496H493L557 85H575L619 496H744L674 0H465L401 411H383L319 0Z"/><path transform="translate(5126,0)" fill="#F7F5F0" d="M224 -14Q171 -14 129.0 4.5Q87 23 62.5 58.5Q38 94 38 145Q38 196 62.5 230.5Q87 265 130.5 282.5Q174 300 230 300H366V328Q366 363 344.0 385.5Q322 408 274 408Q227 408 204.0 386.5Q181 365 174 331L58 370Q70 408 96.5 439.5Q123 471 167.5 490.5Q212 510 276 510Q374 510 431.0 461.0Q488 412 488 319V134Q488 104 516 104H556V0H472Q435 0 411.0 18.0Q387 36 387 66V67H368Q364 55 350.0 35.5Q336 16 306.0 1.0Q276 -14 224 -14ZM246 88Q299 88 332.5 117.5Q366 147 366 196V206H239Q204 206 184.0 191.0Q164 176 164 149Q164 122 185.0 105.0Q206 88 246 88Z"/><path transform="translate(5704,0)" fill="#F7F5F0" d="M270 -14Q211 -14 159.5 15.5Q108 45 77.0 102.0Q46 159 46 240V256Q46 337 77.0 394.0Q108 451 159.0 480.5Q210 510 270 510Q315 510 345.5 499.5Q376 489 395.0 473.0Q414 457 424 439H442V700H568V0H444V60H426Q409 32 373.5 9.0Q338 -14 270 -14ZM308 96Q366 96 405.0 133.5Q444 171 444 243V253Q444 325 405.5 362.5Q367 400 308 400Q250 400 211.0 362.5Q172 325 172 253V243Q172 171 211.0 133.5Q250 96 308 96Z"/><path transform="translate(6342,0)" fill="#10B981" d="M150 -14Q109 -14 81.5 12.5Q54 39 54 81Q54 123 81.5 149.5Q109 176 150 176Q190 176 217.0 149.5Q244 123 244 81Q244 39 217.0 12.5Q190 -14 150 -14Z"/></g></svg>